<svg id="visual" viewBox="0 0 900 600" width="900" height="600" xmlns="http://www.w3.org/2000/svg" xmlns:xlink="http://www.w3.org/1999/xlink" version="1.1"><rect x="0" y="0" width="900" height="600" fill="#FFFFFF"></rect><defs><linearGradient id="grad1_0" x1="33.3%" y1="0%" x2="100%" y2="100%"><stop offset="20%" stop-color="#001122" stop-opacity="1"></stop><stop offset="80%" stop-color="#001122" stop-opacity="1"></stop></linearGradient></defs><defs><linearGradient id="grad1_1" x1="33.3%" y1="0%" x2="100%" y2="100%"><stop offset="20%" stop-color="#001122" stop-opacity="1"></stop><stop offset="80%" stop-color="#273242" stop-opacity="1"></stop></linearGradient></defs><defs><linearGradient id="grad1_2" x1="33.3%" y1="0%" x2="100%" y2="100%"><stop offset="20%" stop-color="#4e5664" stop-opacity="1"></stop><stop offset="80%" stop-color="#273242" stop-opacity="1"></stop></linearGradient></defs><defs><linearGradient id="grad1_3" x1="33.3%" y1="0%" x2="100%" y2="100%"><stop offset="20%" stop-color="#4e5664" stop-opacity="1"></stop><stop offset="80%" stop-color="#777d88" stop-opacity="1"></stop></linearGradient></defs><defs><linearGradient id="grad1_4" x1="33.3%" y1="0%" x2="100%" y2="100%"><stop offset="20%" stop-color="#a2a7ae" stop-opacity="1"></stop><stop offset="80%" stop-color="#777d88" stop-opacity="1"></stop></linearGradient></defs><defs><linearGradient id="grad1_5" x1="33.3%" y1="0%" x2="100%" y2="100%"><stop offset="20%" stop-color="#a2a7ae" stop-opacity="1"></stop><stop offset="80%" stop-color="#d0d2d6" stop-opacity="1"></stop></linearGradient></defs><defs><linearGradient id="grad1_6" x1="33.3%" y1="0%" x2="100%" y2="100%"><stop offset="20%" stop-color="#ffffff" stop-opacity="1"></stop><stop offset="80%" stop-color="#d0d2d6" stop-opacity="1"></stop></linearGradient></defs><defs><linearGradient id="grad2_0" x1="0%" y1="0%" x2="66.7%" y2="100%"><stop offset="20%" stop-color="#001122" stop-opacity="1"></stop><stop offset="80%" stop-color="#001122" stop-opacity="1"></stop></linearGradient></defs><defs><linearGradient id="grad2_1" x1="0%" y1="0%" x2="66.7%" y2="100%"><stop offset="20%" stop-color="#273242" stop-opacity="1"></stop><stop offset="80%" stop-color="#001122" stop-opacity="1"></stop></linearGradient></defs><defs><linearGradient id="grad2_2" x1="0%" y1="0%" x2="66.7%" y2="100%"><stop offset="20%" stop-color="#273242" stop-opacity="1"></stop><stop offset="80%" stop-color="#4e5664" stop-opacity="1"></stop></linearGradient></defs><defs><linearGradient id="grad2_3" x1="0%" y1="0%" x2="66.7%" y2="100%"><stop offset="20%" stop-color="#777d88" stop-opacity="1"></stop><stop offset="80%" stop-color="#4e5664" stop-opacity="1"></stop></linearGradient></defs><defs><linearGradient id="grad2_4" x1="0%" y1="0%" x2="66.7%" y2="100%"><stop offset="20%" stop-color="#777d88" stop-opacity="1"></stop><stop offset="80%" stop-color="#a2a7ae" stop-opacity="1"></stop></linearGradient></defs><defs><linearGradient id="grad2_5" x1="0%" y1="0%" x2="66.7%" y2="100%"><stop offset="20%" stop-color="#d0d2d6" stop-opacity="1"></stop><stop offset="80%" stop-color="#a2a7ae" stop-opacity="1"></stop></linearGradient></defs><defs><linearGradient id="grad2_6" x1="0%" y1="0%" x2="66.7%" y2="100%"><stop offset="20%" stop-color="#d0d2d6" stop-opacity="1"></stop><stop offset="80%" stop-color="#ffffff" stop-opacity="1"></stop></linearGradient></defs><g transform="translate(900, 0)"><path d="M0 351.5C-67.4 345.7 -134.8 340 -175.8 304.4C-216.8 268.9 -231.4 203.7 -256.3 148C-281.2 92.3 -316.4 46.2 -351.5 0L0 0Z" fill="#e7e8ea"></path><path d="M0 301.3C-57.8 296.4 -115.5 291.4 -150.7 261C-185.8 230.5 -198.4 174.6 -219.7 126.9C-241.1 79.1 -271.2 39.6 -301.3 0L0 0Z" fill="#b9bcc2"></path><path d="M0 251.1C-48.1 247 -96.3 242.8 -125.6 217.5C-154.8 192.1 -165.3 145.5 -183.1 105.7C-200.9 65.9 -226 33 -251.1 0L0 0Z" fill="#8c929b"></path><path d="M0 200.9C-38.5 197.6 -77 194.3 -100.4 174C-123.9 153.7 -132.3 116.4 -146.5 84.6C-160.7 52.7 -180.8 26.4 -200.9 0L0 0Z" fill="#626976"></path><path d="M0 150.7C-28.9 148.2 -57.8 145.7 -75.3 130.5C-92.9 115.3 -99.2 87.3 -109.9 63.4C-120.5 39.6 -135.6 19.8 -150.7 0L0 0Z" fill="#3a4452"></path><path d="M0 100.4C-19.3 98.8 -38.5 97.1 -50.2 87C-61.9 76.8 -66.1 58.2 -73.2 42.3C-80.4 26.4 -90.4 13.2 -100.4 0L0 0Z" fill="#152231"></path><path d="M0 50.2C-9.6 49.4 -19.3 48.6 -25.1 43.5C-31 38.4 -33.1 29.1 -36.6 21.1C-40.2 13.2 -45.2 6.6 -50.2 0L0 0Z" fill="#001122"></path></g><g transform="translate(0, 600)"><path d="M0 -351.5C32.8 -293.3 65.6 -235.1 123 -213C180.4 -191 262.3 -205.2 304.4 -175.8C346.6 -146.3 349.1 -73.2 351.5 0L0 0Z" fill="#e7e8ea"></path><path d="M0 -301.3C28.1 -251.4 56.3 -201.5 105.4 -182.6C154.6 -163.7 224.8 -175.9 261 -150.7C297.1 -125.4 299.2 -62.7 301.3 0L0 0Z" fill="#b9bcc2"></path><path d="M0 -251.1C23.4 -209.5 46.9 -167.9 87.9 -152.2C128.8 -136.4 187.3 -146.6 217.5 -125.6C247.6 -104.5 249.3 -52.3 251.1 0L0 0Z" fill="#8c929b"></path><path d="M0 -200.9C18.8 -167.6 37.5 -134.3 70.3 -121.7C103.1 -109.2 149.9 -117.3 174 -100.4C198.1 -83.6 199.5 -41.8 200.9 0L0 0Z" fill="#626976"></path><path d="M0 -150.7C14.1 -125.7 28.1 -100.7 52.7 -91.3C77.3 -81.9 112.4 -88 130.5 -75.3C148.6 -62.7 149.6 -31.4 150.7 0L0 0Z" fill="#3a4452"></path><path d="M0 -100.4C9.4 -83.8 18.8 -67.2 35.1 -60.9C51.5 -54.6 74.9 -58.6 87 -50.2C99 -41.8 99.7 -20.9 100.4 0L0 0Z" fill="#152231"></path><path d="M0 -50.2C4.7 -41.9 9.4 -33.6 17.6 -30.4C25.8 -27.3 37.5 -29.3 43.5 -25.1C49.5 -20.9 49.9 -10.5 50.2 0L0 0Z" fill="#001122"></path></g></svg>